<?xml version="1.0" encoding="utf-8"?>
<!-- Generator: Adobe Illustrator 23.0.5, SVG Export Plug-In . SVG Version: 6.00 Build 0)  -->
<svg version="1.1" id="Layer_1" xmlns="http://www.w3.org/2000/svg" xmlns:xlink="http://www.w3.org/1999/xlink" x="0px" y="0px"
	 viewBox="0 0 1137.2 845.6" style="enable-background:new 0 0 1137.2 845.6;" xml:space="preserve">
<style type="text/css">
	.st0{fill:#F2F2F2;}
	.st1{fill:#E6E6E6;}
	.st2{fill:#FFFFFF;}
	.st3{fill:#3F3D56;}
	.st4{fill:#CCCCCC;}
	.st5{fill:#00326F;}
	.st6{fill:#FFB6B6;}
	.st7{fill:#2F2E41;}
	.st8{fill:#CACACA;}
	.st9{fill:#FFFFFF;stroke:#2F2E41;stroke-miterlimit:10;}
	.st10{fill:#FFFFFF;stroke:#2F2E41;stroke-width:2;stroke-miterlimit:10;}
	.st11{fill:#575A89;}
	.st12{fill:#F1F1F1;}
	.st13{fill:#FFFFFF;stroke:#3F3D56;stroke-miterlimit:10;}
	.st14{fill:#FFFFFF;stroke:#3F3D56;stroke-width:2;stroke-miterlimit:10;}
</style>
<path class="st0" d="M506.7,761.4c0.7,0,1.2-0.5,1.3-1.2c0-0.4-0.1-0.7-0.4-0.9l-0.1-0.3l0-0.1c0.7-1.7,2.6-2.4,4.3-1.7
	c0.8,0.3,1.4,1,1.7,1.8c1,2.4,2.2,4.8,2.5,7.3c0.1,1.1,0.1,2.2-0.2,3.3c2.3-5,3.5-10.5,3.5-16.1c0-1.4-0.1-2.8-0.2-4.2
	c-0.1-1.1-0.3-2.3-0.5-3.4c-1.2-6.1-3.9-11.8-7.8-16.6c-1.9-1-3.4-2.6-4.3-4.5c-0.3-0.7-0.6-1.4-0.7-2.2c0.4-1.1,0.6-2.2,0.6-3.4
	c0.3-0.4,0.8-0.7,1.1-1.1c1.6-2.2,3.8-1.8,5,1.2c2.5,1.2,2.5,3.3,1,5.3c-1,1.3-1.1,3-1.9,4.3c0.1,0.1,0.2,0.2,0.3,0.3
	c1.6,2,3,4.2,4.1,6.5c-0.3-2.6,0.1-5.2,1-7.6c0.9-2.3,2.7-4.2,4.2-6.1c1.1-1.5,3.3-1.7,4.7-0.6c0.7,0.5,1.2,1.4,1.3,2.2l0,0.1
	c-0.2,0.1-0.5,0.3-0.7,0.4c-0.8,0.5-1,1.5-0.5,2.3c0.3,0.4,0.7,0.6,1.1,0.7l0,0c-0.1,0.8-0.2,1.6-0.4,2.5c2,7.7-2.3,10.5-8.4,10.6
	c-0.1,0.1-0.3,0.1-0.4,0.2c1.2,3.3,1.9,6.7,2.2,10.2c0.2,2.1,0.1,4.1,0,6.2l0-0.1c0.4-2.3,1.7-4.3,3.4-5.8c2.7-2.2,6.4-3,9.3-4.7
	c0.9-0.6,2.1-0.3,2.6,0.6c0.2,0.4,0.3,0.8,0.3,1.3l0,0.1c-0.4,0.2-0.8,0.4-1.2,0.6c-0.2,0.1-0.5,0.3-0.7,0.4c-0.8,0.5-1,1.5-0.5,2.3
	c0.3,0.4,0.7,0.6,1.1,0.7l0,0l0.1,0c-0.7,1.7-1.8,3.3-3,4.7c-1.2,6.7-6.6,7.3-12.3,5.4h0c-0.6,2.7-1.5,5.4-2.7,7.9h-9.7
	c0-0.1-0.1-0.2-0.1-0.3c0.9,0.1,1.8,0,2.7-0.2c-0.7-0.9-1.4-1.8-2.1-2.6c0,0,0,0,0-0.1c-0.4-0.5-0.7-0.9-1.1-1.3l0,0
	C506.2,764.1,506.4,762.7,506.7,761.4L506.7,761.4z"/>
<path class="st0" d="M266,761.4c-0.7,0-1.2-0.5-1.3-1.2c0-0.4,0.1-0.7,0.4-0.9l0.1-0.3l0-0.1c-0.7-1.7-2.6-2.4-4.3-1.7
	c-0.8,0.3-1.4,1-1.7,1.8c-1,2.4-2.2,4.8-2.5,7.3c-0.1,1.1-0.1,2.2,0.2,3.3c-2.3-5-3.5-10.5-3.5-16.1c0-1.4,0.1-2.8,0.2-4.2
	c0.1-1.1,0.3-2.3,0.5-3.4c1.2-6.1,3.9-11.8,7.8-16.6c1.9-1,3.4-2.6,4.3-4.5c0.3-0.7,0.6-1.4,0.7-2.2c-0.4-1.1-0.6-2.2-0.6-3.4
	c-0.3-0.4-0.8-0.7-1.1-1.1c-1.6-2.2-3.8-1.8-5,1.2c-2.5,1.2-2.5,3.3-1,5.3c1,1.3,1.1,3,1.9,4.3c-0.1,0.1-0.2,0.2-0.3,0.3
	c-1.6,2-3,4.2-4.1,6.5c0.3-2.6-0.1-5.2-1-7.6c-0.9-2.3-2.7-4.2-4.2-6.1c-1.1-1.5-3.3-1.7-4.7-0.6c-0.7,0.5-1.2,1.4-1.3,2.2l0,0.1
	c0.2,0.1,0.5,0.3,0.7,0.4c0.8,0.5,1,1.5,0.5,2.3c-0.3,0.4-0.7,0.6-1.1,0.7l0,0c0.1,0.8,0.2,1.6,0.4,2.5c-2,7.7,2.3,10.5,8.4,10.6
	c0.1,0.1,0.3,0.1,0.4,0.2c-1.2,3.3-1.9,6.7-2.2,10.2c-0.2,2.1-0.1,4.1,0,6.2l0-0.1c-0.4-2.3-1.7-4.3-3.4-5.8c-2.7-2.2-6.4-3-9.3-4.7
	c-0.9-0.6-2.1-0.3-2.6,0.6c-0.2,0.4-0.3,0.8-0.3,1.3l0,0.1c0.4,0.2,0.8,0.4,1.2,0.6c0.2,0.1,0.5,0.3,0.7,0.4c0.8,0.5,1,1.5,0.5,2.3
	c-0.3,0.4-0.7,0.6-1.1,0.7l0,0l-0.1,0c0.7,1.7,1.8,3.3,3,4.7c1.2,6.7,6.6,7.3,12.3,5.4h0c0.6,2.7,1.5,5.4,2.7,7.9h9.7
	c0-0.1,0.1-0.2,0.1-0.3c-0.9,0.1-1.8,0-2.7-0.2c0.7-0.9,1.4-1.8,2.1-2.6c0,0,0,0,0-0.1c0.4-0.5,0.7-0.9,1.1-1.3l0,0
	C266.5,764.1,266.4,762.7,266,761.4L266,761.4z"/>
<path class="st1" d="M412,242.4c2-3.9,5.1-7.2,7-11.2c1.9-4,2.3-9.3-0.9-12.3c-2.7-2.6-6.9-2.6-10.2-4.5
	c-8.2-4.7-8.2-19.8-17.6-21.1c-4.6-0.6-8.7,2.8-11.5,6.5c-2.8,3.7-5,8-8.8,10.6c-4.3,2.9-10,3-14.8,5.1c-9.2,3.9-14.1,13.9-18.2,23
	c-2.6,5.9-5.3,12.3-4.1,18.6c-2.6,1.6-1.5,6,1.2,7.7s5.9,1.6,8.9,2.3c6.3,1.5,11.5,6.5,14,12.6c1.9,4.7,2.3,9.9,2.7,14.9
	c0.6,8.8,1.3,17.6,1.9,26.4c0.3,3.9,0.7,8.1,3,11.2c2.4,3.1,7.5,4.4,10.2,1.6c2.6-2.7,1.4-7.1,1.4-10.8c-0.1-3.7,3.3-8.4,6.5-6.5
	l1.1-2.6c14.9-5.3,25.3-18.9,26.6-34.7C411.4,266.9,406.5,253.5,412,242.4z"/>
<path class="st1" d="M419.5,321.3c2-1.9,2.1-5.1,0.2-7.2c-0.8-0.9-1.9-1.4-3.1-1.6l0,0.4c-1.4,0.8-2.9,1.2-4.5,1.2
	c-1.6,0-3.2,0.2-4.7,0.7c-1.5,0.6-2.6,2-2.6,3.6c0.2,1.2,0.9,2.3,2.1,2.9c1.1,0.5,2.3,0.9,3.5,1.1
	C413.5,323,417.2,323.5,419.5,321.3z"/>
<path class="st1" d="M480.6,242.6c1.3-0.9,2.4-2,3.3-3.4c0.8-1.4,0.7-3.2-0.3-4.4c-1-0.9-2.3-1.3-3.6-1.3c-3.6-0.3-7.1,0.2-10.5,1.2
	c3.5,3.1,7,6.2,10.5,9.3L480.6,242.6z"/>
<path class="st1" d="M463.2,250.6c1.4,1.6,1,4,0.6,6c-0.4,2.1-0.4,4.6,1.3,5.8c1.5,1,3.7,0.2,4.8-1.3c1-1.5,1.6-3.3,1.8-5.1
	c0.6-2.6,0.8-5.3,0.7-8c-0.1-2.7-1-5.3-2.7-7.5c-2.5-2.8-6.5-3.8-10-2.3l1.6-0.1c-1.2,1.5-2.1,3.2-2.6,5.1c-0.6,1.9,0,3.9,1.3,5.3
	C461,249.3,462.3,249.6,463.2,250.6z"/>
<path class="st1" d="M542.6,224.5l0.3-0.9c-2.5,1.4-3.6,4.4-2.7,7.1C542,229.3,543,226.9,542.6,224.5z"/>
<path class="st1" d="M526.9,237.2c3.1-1.8,5.2-4.9,5.6-8.4c0.2-1.1,0-2.2-0.4-3.2c-0.4-1-1.3-1.8-2.4-2l-0.7,1
	c-0.9-0.8-2.5,0-2.9,1.2c-0.3,1.2-0.1,2.5,0.3,3.7c0.5,1.2,0.4,2.5-0.1,3.6c-0.5,0.7-1.1,1.3-1.8,1.9c-0.7,0.6-0.8,1.6-0.3,2.3
	C525,238,526.1,237.7,526.9,237.2z"/>
<path class="st1" d="M520.3,231.4c0.6-1,0.8-2.2,0.8-3.3l-1.4-0.4c-0.9,0.4-1.7,1-2.4,1.7c-0.7,0.7-0.7,1.9,0,2.6
	c0.7,0.7,1.9,0.7,2.6,0C520,231.9,520.2,231.7,520.3,231.4z"/>
<path class="st1" d="M590.3,224.2c0.1,0.1,0.3,0.2,0.4,0.3c0.1,0,0.2-0.1,0.3-0.1L590.3,224.2z"/>
<path class="st1" d="M588,236.8c1.3-1.1,2.6-2.1,3.9-3.2c0.7-0.5,1.3-1.1,1.8-1.8c0.6-1.4,0.5-3-0.3-4.3c-0.7-1.1-1.6-2.1-2.7-2.9
	c-2.4,0.6-4,2.8-3.7,5.3c0.2,1.5,1.2,3.1,0.4,4.4c-0.3,0.5-0.8,0.9-1.2,1.3c-0.3,0.5-0.5,1.3,0,1.6
	C586.8,237.6,587.5,237.2,588,236.8z"/>
<path class="st1" d="M590.9,243.3c1,0.1,2-0.3,2.6-1c1.8-1.4,3.3-3.1,4.6-5c-3,0.9-5.9,1.9-8.9,2.8l0.9,1.1
	C589.3,241.7,590,243.1,590.9,243.3z"/>
<path class="st1" d="M599.2,249.4c0.4,0.9,1.3,1.5,2.3,1.4c1-0.1,1.9-0.7,2.4-1.5c1.4-2.1,0.9-4.9-1.2-6.3c-0.7-0.5-1.5-0.7-2.3-0.8
	l0.8,1.2C601.5,245.6,598.6,247.3,599.2,249.4z"/>
<path class="st1" d="M656.7,272.7c1.6,1.2,3.9,1.2,5.5,0c2.1-1.8,2.3-4.9,0.5-7c-0.1-0.1-0.2-0.2-0.3-0.3l-1.5,0.8
	c-1.7-1.1-4.1-0.7-5.2,1C654.8,269.1,655.1,271.4,656.7,272.7z"/>
<path class="st1" d="M674.3,274.7c1.5-0.4,2.7-1.6,3.1-3.1l-2.9-0.4c-0.8-0.6-1.8-1-2.8-1.2c-1-0.2-2.1,0.4-2.4,1.4
	c-0.1,0.8,0.2,1.7,0.8,2.2C671.2,274.7,672.8,275.1,674.3,274.7z"/>
<path class="st1" d="M662.2,280.6c0.1,1,0.8,1.8,1.7,2.1c1,0.5,2.2,0.3,3-0.5c0.6-0.7,0.6-1.8-0.1-2.4c-0.1-0.1-0.3-0.2-0.5-0.3
	l-2.2-0.4C663.3,278.7,662.2,279.6,662.2,280.6z"/>
<path class="st1" d="M534.2,296.1l-1.7-1.6C533,295.2,533.6,295.7,534.2,296.1z"/>
<path class="st1" d="M521.2,286.9c1.1,4.9,6.3,8.9,11.1,7.4l0.3,0.2c-1.5-2.1-1.8-5.2-1.4-7.8c1.3-9.3,7.3-17.3,15.9-21.2
	c1.2-0.4,2.2-1,3-1.9c0.7-1,0.4-2.7-0.7-3c-0.6-0.1-1.3,0.1-1.8,0.4l-8.9,4.4c-4.5,2.2-9,4.5-12.6,8S520.1,282.1,521.2,286.9z"/>
<path class="st1" d="M378.1,454.7c-8.3-5.9-17.3-10.6-26.9-14c-5.9-2.1-12.2-3.7-18.3-2.5c-6.8,1.4-12.6,6-15.4,12.3
	c-2.8,6.4-2.5,13.7,0.7,19.8c2.8,5.3,7.7,9.5,9.4,15.3c1.1,3.9,0.6,8,0,12.1c-1.1,8.2-2.2,16.4-3.3,24.6c-1,7.5-2,15.2,0.4,22.4
	c2.4,7.2,9.1,13.5,16.6,12.7l1.5-0.1c-5-3.4-6.3-10.3-4.9-16.2c1.5-5.8,5.2-10.7,8.9-15.5c10.9-14.1,21.7-28.2,32.6-42.3
	c4.4-5.7,9-12.7,6.7-19.6C384.7,459.9,381.4,457.1,378.1,454.7z"/>
<path class="st1" d="M304.1,419.1c-1.1-0.4-2.3,0.5-2.9,1.4c-0.5,1-1.1,2-1.8,2.9c-1.7,1.7-4.8,1.4-6.6-0.2c-1.8-1.6-2.6-4.1-3-6.5
	c-0.4-2.9-0.2-6.1,1.7-8.3c2-2.3,5.2-2.9,8.1-3.4c3.1-0.5,6.5-0.9,9,0.9c1.6,1.1,2.5,3,4,4.3c1.5,1.3,4.1,1.8,5.2,0.2
	c0.6-1.2,0.6-2.5-0.1-3.7c-0.6-1.1-1-2.4-1.1-3.6c0.1-1.8,1.5-3.2,3-4.2s3.1-1.9,4.1-3.4c1.2-1.8,1-4.2,1.8-6.3
	c1.8-5,8.1-7.2,9.9-12.1c0.4-1,0.5-2.2,0.1-3.3c-0.8-2-2.8-1.6-3-4c-0.1-2.3,1.8-4.6,3.8-5.5c2.7-1.3,5.8-1.2,8.8-1.3
	c3-0.1,6.2-0.5,8.4-2.5c2.8-2.9,2.7-7.5-0.2-10.3c-0.2-0.2-0.4-0.4-0.6-0.5c-1.6-1.1-3.7-1.5-5.3-2.7c-2-1.5-2.9-4-4.5-5.9
	c-1.3-1.5-2.8-2.8-4.4-3.9c-1.3-1-2.7-2-4-3c-2.4-1.8-4.9-3.6-7.8-4.2c-2.9-0.6-6.4,0.3-7.9,2.9c-0.6,1.2-0.9,2.4-0.9,3.7
	c-0.1,3.1,0,6.1,0.4,9.2c0.2,2.4,0.5,4.9,0.7,7.3c0.2,2.2,0,5.1-2.1,5.6c-4.7,1.3-3.1-5.7-4.2-7.8c-1.6-3.3-9-4.8-12.1-6.2
	c-2-0.9-4-1.8-5.2-3.6c-1.5-2.2-1.2-5.2,0-7.6c1.2-2.4,3-4.4,4.8-6.4c1.7-2.1,3.3-4.3,4.9-6.5c1.8-2.6,3.7-5.1,5.5-7.7
	c2.4-3.3,4.8-7.3,3.5-11.1c-0.8-1.4-2.6-1.9-4.1-1.1c-0.7,0.4-1.2,1-1.4,1.8c-0.6,2.1,1,4.7-0.5,6.2c-1.1,0.9-2.6,0.8-3.6-0.1
	c-1-0.9-1.7-2-2.2-3.3c-1.8-4-3.6-8.1-5.5-12.1c-0.6-1.3-1.2-3.4-3-3.2c-1.6,0.2-2.4,2.4-2.3,3.8c0.1,1.9,1.1,3.6,1.9,5.4
	s1.4,3.8,0.5,5.5c-1.1,2.1-4,2.6-6.4,2.6c-4.6-0.1-9-1.3-13.1-3.4c-0.1,2.2-0.2,4.5-0.3,6.7c-3.2-1.3-6.4-2.7-9.6-4
	c-0.6-0.3-1.2-0.5-1.9-0.8c-2.7-1.1-5.4-2.3-8.2-3.2c-1.6-0.5-3.2-1-4.8-1.4c-1-0.3-2-0.6-2.9-0.8c-1.9-0.7-4-1-6-0.9
	c-2.1,0.3-4.1,1.4-6,2.3c-4.4,1.9-10.1,0-14.9,0c-6.2-9.1-18.6-11.4-27.7-5.2c-2.3,1.6-4.3,3.7-5.8,6.1c-0.8,1.4-1.6,2.9-2.2,4.5
	c-0.6,1.4-1.3,2.9-1.9,4.3c-0.9,2.1-1.9,4.3-1.7,6.6s2,4.7,4.3,4.6c-5.5,2.5-6.6,11.1-2,14.9c1.3,1.1,2.9,1.7,4,2.9
	c2.4,2.5,2.4,6.5-0.1,8.9c-1.2,1.2-2.9,1.8-4.6,1.8c6.7,2.6,14.2,0.2,18.2-5.7c2-3.1,2.8-7,5.5-9.5c3.6-3.3,9.5-3.1,13.6-0.5
	s6.7,7.1,8.5,11.6c2.3,5.9,3.9,12.7,8.9,16.7c2.4,1.9,5.5,3,7.6,5.2c3,3.2,3.6,8,3.5,12.4c-0.1,4.4-0.5,9,1.1,13.1s6.2,7.5,10.3,5.9
	c-2.4,7.2,0.4,15.1,6.9,19.2c-0.8-4.7-1.5-9.3-2.3-14c3.7,1.1,6.2,4.7,7.6,8.3c1.4,3.6,2.1,7.5,4.2,10.9c3.2,5.2,9,7.5,14.9,7.4
	c6.4,0,8.8-3.1,13-7.5c0.8-0.8,1.5-1.7,1.9-2.8C305.7,420.8,305.2,419.6,304.1,419.1z"/>
<path class="st1" d="M322.1,418.9c-3.6-0.6-7.1-1.1-10.7-1.7c1.9,1.1,3.7,2.2,5.6,3.4c1.6,1,3.2,1.8,5,2.4c1.8,0.6,3.8,0.4,5.4-0.6
	l-0.5-0.9C326.3,419.7,324,419.2,322.1,418.9z"/>
<path class="st1" d="M319.7,438.6L319.7,438.6c-0.4-0.8-1.3-1.2-2.1-1c-0.8,0.1-1.7,0.2-2.5,0c-1.1-0.4-1.9-1.3-2.1-2.4
	c-0.4-1.1-0.5-2.2-0.9-3.2c-0.6-1.7-2.1-2.9-3.8-3.1c-1.8-0.1-3.4,1.2-3.6,3c0.1,0.9,0.4,1.8,0.8,2.5c0.4,0.7,0.8,1.5,1.2,2.2
	c0.3,0.7,0.7,1.3,1.1,1.9c2.4,3.3,7.1,4.1,10.4,1.6C318.8,439.7,319.3,439.2,319.7,438.6L319.7,438.6z"/>
<path class="st1" d="M298.9,249.4c2.7,1.6,6.1,2.7,7.4,5.6l0.7,0.2c-0.8,1-1.6,2-2.4,3c-1,1.2-2.1,2.6-2,4.2c0,2.2,2.1,3.9,4.3,4.4
	c4.7,1,9.4-1.8,10.8-6.4c0.3-0.9,0.4-1.9,0.6-2.8c0.6-2.2,1.6-4.3,2.9-6.2c7.2-12.1,14.4-24.2,21.6-36.3c0.9-1.5,1.8-3.3,1.1-4.9
	c-0.7-1.4-2.2-2.2-3.8-2.1c-1.5,0.2-3,0.7-4.3,1.5c-1.2-2.1-3.4-3.5-5.8-3.7c-2.4-0.2-4.8,0-7.1,0.6c-5.2,0.8-10.3,2.5-14.9,5.1
	c-2.5,1.3-5.3,2.9-6,5.6c-0.9,3.4,2,6.8,5.4,7.8c3.3,1,6.9,0.2,10.3-0.7c1,4.2-1.6,8.4-5.8,9.4c-2.6,0.6-5.3-0.2-7.2-2
	c-2.4-2.4-3.6-6.5-7-7.1c-3.3-0.6-6,2.9-6.7,6.2C289.4,238.1,292.6,245.5,298.9,249.4z"/>
<path class="st1" d="M340.6,307.6c-1.6-4.5-3.7-8.8-6.3-12.9c-1.9-3.2-4.3-6.1-7.1-8.6c-2.5-2.2-5.5-3.9-8.6-5.1
	c-3.1-1.1-6.5-1.7-9.6-0.6c-3.1,1-5.7,3.9-5.7,7.2c0.1,3.6,3.2,6.4,6.5,7.9s6.9,2.1,10,4c4.3,2.6,7,7.1,7.2,12.1l0.8,1.3
	c-1.8,0.6-3.4,1.5-4.9,2.7c-1.5,1.2-2.2,3.1-1.8,5c0.5,2.2,2.8,3.4,4.8,4.4c3.7,1.8,7.4,3.7,11.2,5.5c-1.9-5.7,4.3-10.9,4.7-16.9
	C341.8,311.6,341.4,309.5,340.6,307.6z"/>
<path class="st1" d="M247,292.4c2.3,1.8,5.7,0.9,7.8-1c2.1-2,3.1-4.8,4-7.5c-0.3,2.7-0.3,5.4,0.1,8c0.4,2.7,2,5.1,4.2,6.6
	c1,0.6,2.1,1,3.3,1.2c5.3,1.2,10.9,0.8,15.9-1.1l0-1.7c-2.6,0.3-4.5-2.5-4.7-5.1c-0.2-2.6,0.8-5.1,0.8-7.6s-1.2-5.6-3.7-6
	c1.2,2.4,0.2,5.4-2.2,6.6c-1.3,0.6-2.7,0.7-4,0.2c-2.9-1.2-4-4.8-6.3-7c-2.9-2.5-7-3.1-10.4-1.5c-3.4,1.7-5.8,4.8-6.7,8.5
	C244.7,287.5,244.9,290.7,247,292.4z"/>
<path class="st1" d="M316.7,274.1l0.1-0.2c-0.6-1.8-2.6-2.9-4.5-3.2c-1.9-0.1-3.9-0.1-5.8,0.2c-1.9,0.2-3.9-0.2-5.5-1.2
	c-1.3-1-2.1-2.5-3.1-3.8c-1-1.3-2.7-2.3-4.3-1.7c-1.7,0.7-2.1,3-1.3,4.5c0.9,1.5,2.4,2.7,4,3.3C302.8,275,309.9,275.7,316.7,274.1z"
	/>
<path class="st1" d="M295,279.5c-1.1,0.8-1.4,2.4-0.5,3.5c0.8,1.1,2.2,1.4,3.4,0.7l0.6,0.5c0.7-1.3,1-3.1,0.1-4.3
	C297.6,279,296.1,278.8,295,279.5z"/>
<path class="st1" d="M288.5,284.3c0-1-0.6-1.9-1.5-2.2c-1.2-0.2-2.4,0.6-2.6,1.8c0,0,0,0.1,0,0.1c-0.1,1.2,0.3,2.5,1.2,3.4
	c0.5,0.7,1.3,1.2,2.1,1.3c0.9,0,1.8-0.9,1.4-1.7l-1.3,0C288.3,286.2,288.5,285.2,288.5,284.3z"/>
<path class="st1" d="M262.5,270.6c0.5,0.4,1,0.8,1.5,1.2c0.8,0.7,1.8,1.4,2.7,1.9c1.7,0.9,3.7,1.2,5.6,0.7c1.9-0.5,3.4-2,3.9-3.9
	c0.6-2.2-0.4-4.5-1.3-6.6c-0.2-0.6-0.6-1.1-1-1.6c-0.5-0.4-1.2-0.5-1.7-0.1c-0.4,0.5-0.5,1.1-0.3,1.6c0.2,0.5,0.3,1.1,0.3,1.7
	c-0.1,0.6-0.7,1.1-1.2,0.9l-0.1,2c-2.5-1.3-3.9-4.7-6.7-5c-1.9-0.2-3.7,1.1-3.9,3.1c-0.1,0.7,0.1,1.4,0.4,2.1
	C261.1,269.4,261.7,270.1,262.5,270.6z"/>
<path class="st1" d="M256.4,262.2c1.2-0.8,1.8-2.2,1.6-3.7c-0.3-1.3-1.5-2.1-2.8-1.9c-0.1,0-0.3,0.1-0.4,0.1
	c-0.7,0.5-1.2,1.3-1.4,2.2c-0.7,1.9-1.3,3.8-2,5.7l1.1-0.8C253.9,263.5,255.2,263,256.4,262.2z"/>
<path class="st1" d="M269.5,250.6c0.8-1,0.6-2.4-0.4-3.1c-0.1-0.1-0.2-0.2-0.3-0.2l-1.4-0.1c-1.1,0.3-1.8,1.4-1.5,2.6
	c0.3,1.1,1.4,1.8,2.6,1.5C268.8,251.1,269.2,250.9,269.5,250.6z"/>
<path class="st1" d="M282.4,252.8c1.3,0.6,3,1.2,4.1,0.3c0.7-0.6,1-1.6,0.8-2.5c-0.2-0.9-0.6-1.7-1.2-2.4c-1.7-2.5-4-4.7-6.5-6.3
	l-0.6,0.8c-0.9,2.3-1.7,5-0.5,7.1C279.3,251.2,280.9,252,282.4,252.8z"/>
<path class="st1" d="M292.2,254.8l2.5,1.1C294.1,255.1,293.2,254.6,292.2,254.8z"/>
<path class="st1" d="M285.6,262.5l-1.2,0.4c-1,1.6-0.6,3.7-0.1,5.5c0.3,1.2,0.9,2.6,2.1,2.5c1.2-0.1,1.7-1.5,1.9-2.6
	c0.3-1.2,0.4-2.6,0.1-3.8C288.1,263.3,286.9,262.4,285.6,262.5z"/>
<path class="st1" d="M267.1,257.1l0.9,0.3c0.5-0.1,0.9-0.5,0.8-1c-0.1-0.5-0.5-0.9-1-0.8s-0.9,0.5-0.8,1
	C266.9,256.8,267,257,267.1,257.1z"/>
<path class="st1" d="M310.3,322.7c-1.4,0-2.6,1.2-2.6,2.7c0,0.3,0.1,0.6,0.2,0.9c0.8,1.8,3.7,1.8,5,0.3c1.3-1.7,1-4.2-0.8-5.5
	c-0.1-0.1-0.2-0.1-0.3-0.2L310.3,322.7z"/>
<path class="st1" d="M352.2,365.7c-1.4,0.4-2.2,1.8-1.9,3.2c0,0,0,0,0,0.1l2.4,0.2c0.8-0.4,1.6-0.8,2.4-1.2
	C355,366.5,353.7,365.5,352.2,365.7C352.2,365.7,352.2,365.7,352.2,365.7z"/>
<path class="st1" d="M342.4,368.7c-1.4,1-2.2,2.6-2.1,4.4c0.2,1.7,1.4,3.2,3.1,3.5c1.7,0.3,3.4-0.8,3.8-2.6c0.4-2.5-2.3-4.3-3.2-6.7
	L342.4,368.7z"/>
<path class="st1" d="M436,352.3c0.3,1.9-1.4,3.5-1.5,5.4c-0.1,2.2,2.4,4,4.6,3.8c2.2-0.4,4.2-1.8,5.2-3.8l0-0.2
	c-1.1-1.2-2.2-2.5-3.3-3.7c-1.3-1.5-2.7-3.2-2.7-5.2c0-1,0.4-2,0.4-2.9c-0.1-0.7-0.2-1.4-0.5-2.1c-0.3-0.9-0.7-1.9-1.6-2.2
	c-1.1-0.4-2.2,0.6-2.7,1.6c-1,1.9-0.9,4.2,0.2,6.1C434.9,350.1,435.8,351,436,352.3z"/>
<path class="st1" d="M425.8,358.8c0.5,0.3,1.1,0.3,1.6,0.1c1-0.2,1.9-0.5,2.7-1c0.9-0.5,1.4-1.5,1.3-2.5c-0.3-1.3-1.3-2.2-2.6-2.4
	c-0.9-0.3-1.9-0.2-2.6,0.4c-0.8,0.8-0.7,2-0.6,3.1l-0.2,0.3C425.3,357.6,425.2,358.4,425.8,358.8z"/>
<path class="st1" d="M596.8,438.9c-0.2-0.6-0.5-1.2-0.7-1.8C595.8,437.9,595.9,438.7,596.8,438.9z"/>
<path class="st1" d="M737.9,315.9c-3-3.3-4.9-5.2-6.8-9.2c-2.1-4.5-6.3-7.7-11.3-8.5c-6.3-1-12.7,0.6-19,0.3
	c-10.1-0.5-19.3-6-29-8.9c-5.4-1.5-11-2.7-16.6-3.4c-3.2-0.5-6.5-1-9.7-1.5c-10.6-1.7-21.2-3.3-31.9-3.1c-3.1,0.1-7.4-0.9-7.1-3.9
	c0.3-3.8,7.2-3.3,8.5-6.9c0.8-2.2-1.1-4.6-3.3-5.6c-2.1-1-4.6-1.3-6.6-2.7c-1.9-1.4-3-4.5-1.2-6c-5,2.5-9.9,5.1-14.9,7.6
	c-4.1,2.1-8.7,4.9-9.5,9.4c-2.5,0.7-4.7,2.2-6.1,4.3c-2.8,0-5,2.7-5.4,5.5c-0.5,2.8,0.4,5.5,1.2,8.2c-1-1.9-2.1-4-3.9-5.2
	c-1.8-1.3-4.5-1.5-6,0.1c-1.6,1.6-1.2,4.3-0.1,6.3c1.1,2,2.8,3.5,3.8,5.5c3.3,6.2-2.6,15-9.6,14.3c0.5-6.4,0.9-12.8,1.4-19.2
	c0.3-2,0.1-4-0.5-5.9c-0.8-1.8-2.7-3.3-4.7-2.9c-3.5,0.8-3.2,5.9-1.7,9.2c1.5,3.3,2.9,7.8-0.1,9.8c-1.9,1.3-4.5,0.5-6.6-0.5
	c-2.1-1-4.3-2.3-6.5-1.8c-2.3,0.5-3.7,3.9-1.7,5.1c-3.3-0.6-6.6-1.1-9.9-1.7c-0.6,3.8-4.3,6.4-8.1,5.8c-0.2,0-0.5-0.1-0.7-0.2
	c-0.3-1.3-0.6-2.7-1-4c-0.5-0.1-1-0.3-1.5-0.4c1.5,0.4-0.9,6.8-3,11.7c-2.9-0.3-7.1-0.4-7.5-1.2c-2.3-3.9-2-13.3-6-15.5
	c-2-1.1-4-2.1-6.1-3c-1.1-0.5-2.3-0.9-3.5-1.1c-2.4-0.4-4.9,0.4-7.3,1.1c-2.8,0.9-5.6,1.8-7.9,3.6c-2,1.7-3.7,3.7-5,5.9
	c-4.6,6.7-9.1,13.5-13.7,20.2c-1.4,1.8-2.4,3.8-3.2,5.9c-0.7,2.1-0.4,4.5,0.7,6.4c1.2,1.9,3.6,2.7,5.8,2c1.3-0.6,2.6-1.9,3.9-1.3
	c1,0.5,1.2,1.8,1.1,2.8c-0.3,1.1-0.3,2.2-0.1,3.2c0.6,1.7,2.9,2.3,4.5,1.5c1.6-0.9,2.8-2.3,3.3-4c1.6-4,1.4-8.5,1.8-12.8
	c0.4-4.3,1.6-8.9,5-11.6c1-0.8,2.5-1.4,3.6-0.6c0.8,0.7,1.1,1.9,0.6,2.9c-0.4,1-1,1.9-1.7,2.7c-2.3,3.3-3.2,7.4-2.4,11.4l0.7,0.4
	c2.7-0.7,6.2,0.5,9.7,1.7c-2.6,0.8-4.8,2.3-6.4,4.4c-4.1,5.7-7,11.1-15.1,11c-1.9,0-3.8-0.4-5.7-0.4c-1.9-0.1-3.8,0.5-5.3,1.8
	c-1.4,1.4-1.9,3.6-3.1,5.2c-1.6,2.1-4.4,3-6.8,3.9c-1.8,0.7-3.7,1.6-4.6,3.4c-0.5,1.4-0.6,3-0.3,4.5c0.3,2.7,0.8,5.7,3,7.1
	c1.7,0.9,3.7,1.1,5.5,0.5c2.4-0.6,4.6-1.6,7.1-1.5c3.8,0.3,6.9,3.9,6.9,7.7c0,1.9-0.5,4.1,0.7,5.6c1.2,1.4,3.6,1.1,4.8-0.2
	c1.2-1.4,1.6-3.3,1-5.1c-0.5-1.7-1.3-3.4-2.4-4.8c2.6-0.7,5.3,0.6,6.5,3c0.8,1.9,0.6,4,0.8,6.1c0.3,2,1.5,4.3,3.6,4.4
	c1.4,0,2.6-0.9,2.9-2.3c0-1,0-2.1-0.2-3.1c0.1-2.1,1.9-3.7,4-3.7c-1.3,2.4-0.7,5.3,1.4,7c1.6,1.2,3.6,1.5,5.6,1.8s4,0.9,5.3,2.4
	c2.1,2.5-0.5,3.7-0.9,5.8c-0.5,2.6,1.7,6.5,2.6,9c3.9,5.4,7.8,10.9,11.6,16.3c0.9,1.3,1.9,2.5,3,3.6c3.8,3.3,10.2,3,13.8-0.5
	c3.7-3.7,4.5-9.4,2-13.9c-2.3-4.1-6.8-6.7-9-10.9c3.7,3.1,8.2,4.9,13,5.4c8.5,1.7,16.5,5.1,23.7,9.9c0.3,7.5,3.2,14.6,8.1,20.3
	c0.9-6.4,3.9-12.3,8.5-16.8c3-2.9,7.1-5.3,11.2-4.5c4.1,0.8,7.2,6,4.7,9.4c2.1,0.2,4.2,0.3,6.2,0.5c0.9,2.3,1.9,4.6,2.8,7
	c0.3-1,1.3-1.7,2.3-1.6c1.9,0.3,3.3,2.1,5.2,2.8c3.5,1.3,7.2-2.2,7.7-5.9c0.5-3.7-1.3-7.2-3-10.5c10.7,2,20.9-5.1,22.9-15.8
	c0.9-4.9-0.1-9.9-2.7-14.1c4-4.3,8.8-7.8,14.1-10.4c4.9-2.4,10.2-4.1,14.4-7.4c4.3-3.4,7.2-9.2,5.2-14.3c-1.4-3.6-5.1-6-6.2-9.6
	c-1.6-5.3,3.2-10.8,8.6-12.2c5.4-1.3,11,0.3,16.3,1.9c-0.8-5.5,5.5-10.6,10.7-8.6c2.2-0.9,4.3-1.8,6.5-2.6c-2.5,5.5-8,9.1-12,13.6
	c-4,4.6-6.4,12-2.2,16.4c6-5.4,12-10.9,18-16.3c6.3-5.7,12.5-11.4,18.8-17c-0.3-0.9-0.6-1.8-0.9-2.6
	C725.8,320.6,732.2,318.7,737.9,315.9z"/>
<path class="st1" d="M426.6,389c-0.5,0.7-0.5,1.7,0,2.4c0.7,0.6,1.6,0.6,2.3,0c0.6-0.5,1.1-1.2,1.5-2c0.6,1.2,2,1.9,3.4,1.8
	c1.3-0.2,2.6-0.7,3.7-1.5c0.9-0.5,1.6-1.2,2.2-2c0.6-0.8,0.8-1.8,0.6-2.8c-0.3-0.7-0.8-1.4-1.5-1.9c-1.6-1.5-3.2-2.9-4.8-4.4
	l-0.5-0.2c-1.1-1.2-3.1-1.3-4.3-0.1c0,0-0.1,0.1-0.1,0.1c-1,1.1-1,2.7-0.8,4.2s0.4,3-0.3,4.4C427.7,387.7,427,388.3,426.6,389z"/>
<path class="st1" d="M518.6,439.1c-12.6-2.8-22.4-12.7-25.1-25.3c-0.6-2.9-0.8-6.1-2.8-8.3c-1.9-2.2-4.9-3-7.8-3
	c-2.9,0-5.7,0.7-8.6,0.8c-5,0.3-10.3-1-13.9-4.5c-1.7-1.7-3-3.8-5-5.1c-2.7-1.8-6.2-1.8-9.2-0.8c-3.4,1.1-6.1,4.2-9.8,3.7
	c-3.8-0.4-8.3-1.8-9.8,3.3c-0.4,1.5-0.3,3.1-0.8,4.5c-0.8,2.2-3.1,3.4-4.9,4.9c-3.6,3.1-5.5,7.8-6.1,12.4c-0.6,4.7-0.1,9.4,0.4,14.1
	c0.3,2.5,0.6,5.3,2.4,7.1c2.4,2.6,6.5,2.5,10,2.2c4.1-0.3,8.2-0.7,12.3-1c2.2-0.2,4.7-0.3,6.3,1.3c0.9,0.9,1.3,2.3,2.2,3.3
	c1.5,1.8,4.1,2.3,6.3,1.3c-2.8,5-1,11.3,4,14.1c1.2,0.7,2.5,1.1,3.8,1.3l0.3,0.2c-2.6,4.5-5.4,9.6-4.3,14.7
	c0.9,4.4,4.6,7.9,5.2,12.3c0.5,4.1-1.6,8.2-0.6,12.2c1,4.1,5,6.9,9.2,7.2c4.1,0.3,8.2-1.5,11.4-4.2s5.7-6,8.1-9.4
	c1.5-2.1,3.1-4.2,3.6-6.8c0.6-2.7-0.1-5.6,1.2-8c1.5-2.8,5.1-3.8,6.9-6.4c2.3-3.4,1-7.9,1.5-12C506.2,455.4,518.9,449.1,518.6,439.1
	z"/>
<path class="st1" d="M516.8,473.3c-0.3,1.6-1.8,2.6-3.2,3.4c-1.4,0.8-2.9,1.6-3.6,3c-0.7,1.5-0.4,3.2,0,4.8c0.8,3.3,1.7,6.6,2.8,9.9
	c2.1-3.9,3.9-8,5.4-12.2c0.7-1.6,1.1-3.2,1.2-4.9c0.1-1.7-0.5-3.4-1.6-4.6L516.8,473.3z"/>
<path class="st1" d="M602.5,455.8c-1.7-2-3.5-4-5.2-6.1c-1.2-1.4-2.6-2.9-4.4-3.1l-0.7,0.5c1.5,3.6,3,7.2,4.6,10.8
	c0.5,1.6,1.5,3.1,2.7,4.3c1.4,1.1,3.6,1.3,4.7,0c0.7-1,0.9-2.3,0.4-3.5C604,457.7,603.3,456.7,602.5,455.8z"/>
<path class="st1" d="M619.4,459.7c1.3-0.5,2.4-1.5,3-2.8c0.5-1.3,0.9-2.6,1.1-4c0.3-1.8,0.6-3.6,0.9-5.4l-0.4-0.1
	c-0.8-0.4-1.7-0.1-2.2,0.6c-0.4,0.7-0.8,1.5-1,2.3c-0.2,0.8-0.8,1.5-1.6,1.8c-1.4,0.4-2.7-1.1-4.2-1c-1.2,0.2-2.2,1.1-2.3,2.4
	c-0.1,1.2,0.3,2.4,1,3.4C614.9,458.8,617.2,460.3,619.4,459.7z"/>
<path class="st1" d="M629.1,463.1l4-10.6C629.8,454.9,628.2,459.1,629.1,463.1z"/>
<path class="st1" d="M649.7,454.6l-0.8,0c-0.7,1.5-0.8,3.2,0,4.7c0.7,1.5,1.8,2.7,3,3.7c2,1.6,4.3,2.9,6.7,3.7c3.6,1,7.3,1.6,11,1.7
	c2.1,0.1,4.3,0.3,6.4,0.4c1,0.1,2.3-0.1,2.6-1c0.2-0.8-0.5-1.6-1.1-2.1c-5.6-4.8-12.5-7.9-19.8-9C655,456.3,652,456.1,649.7,454.6z"
	/>
<path class="st1" d="M672.5,482.8c-1.5-1.5-3.1-3-4.6-4.5c-1.5-1.4-3.7-3-5.4-1.8c-1,0.7-1.3,2-2.1,2.9c-1,0.9-2.5,1.3-3.8,0.9
	c-1.3-0.4-2.6-1-3.7-1.7l-3.8-2.4c-1.3-0.8-2.6-1.6-3.9-2.4l-3,2.9c0.1-1.4-1.8-2.3-3.1-1.8c-1.3,0.7-2.1,2-2.4,3.4
	c-0.2,1.4-0.6,2.8-1.1,4.1c-1.5,2.9-5.2,3.7-8.4,4.2s-6.9,1.2-8.6,3.9c-1.4,2.3-1,5.3-0.5,7.9l1.8,10.1c0.1,1.2,0.6,2.4,1.4,3.3
	c1.6,1.4,4.1,0.6,6-0.3c4.1-2,8.4-3.2,12.9-3.7c4.5-0.5,9.1,0.7,12.8,3.3c2.3,1.8,4.1,4.2,6.5,5.7c3.4,2.1,7.6,2.4,11.3,1
	c3.7-1.5,6.7-4.2,8.6-7.7c3.4-6.2,3.2-13.8-0.4-19.9C677.1,487.4,674.9,484.9,672.5,482.8z"/>
<path class="st1" d="M667.9,523.9c-0.8,0.9-0.8,2.2-0.2,3.2c0.7,1,1.7,1.6,2.8,1.8c1.1,0.2,2.3,0.3,3.5,0.2l0-0.9
	c-0.3-1.5-1-2.9-2-4.1C671,523.1,669,522.7,667.9,523.9z"/>
<path class="st1" d="M707.5,524.8l-0.6-0.2c-1.3,2-2.6,3.9-3.9,5.9c-0.7,1.1-1.4,2.3-1,3.5c0.5,1.4,2.4,1.8,3.9,1.5
	c2.3-0.6,4-2.5,4.4-4.8C710.6,528.3,709.5,526,707.5,524.8z"/>
<path class="st1" d="M717.5,518.5l-3.6-2.9c0,1.3-0.1,2.7-0.1,4l-0.1,0c0.8,0.7,1.6,1.5,2.4,2.3c0.8,0.7,2.3,1,3,0.2
	c0.4-0.6,0.5-1.4,0.1-2.1C718.6,519.5,718.1,518.9,717.5,518.5z"/>
<path class="st1" d="M652.1,393.4c-1.5,0-3.2-0.1-4.4,0.8c-0.4,0.3-0.7,0.7-1,1.2l-0.4,0.6c-0.6,0.8-1.2,1.7-1.6,2.6
	c-0.5,0.9-0.6,1.9-0.2,2.8c0.4,0.8,1.3,1.2,2.2,0.8c0.1,0,0.2-0.1,0.3-0.1c0.6-0.6,0.5-1.7,1-2.4c0.4-0.6,1.1-0.9,1.8-0.9
	c0.7,0,1.4,0.1,2.1,0.2c5.5,0.8,10.6-3.1,11.3-8.6c0.3-2.4-0.2-4.8-1.5-6.8l-0.1-0.4c-2.2-0.1-4.1,1.4-4.6,3.5
	c-0.3,1.8,0.4,3.8-0.7,5.3C655.4,393.3,653.6,393.5,652.1,393.4z"/>
<path class="st1" d="M665.7,374.7l-0.2,0c-1.4,0.2-2.7,0.7-3.8,1.4c-0.4,0.2-0.7,0.5-0.9,0.9c-0.1,0.4,0,0.9,0.3,1.2
	c0.3,0.3,0.6,0.6,1,0.8c0.6,0.4,1.2,0.7,1.9,0.8c0.7,0.2,1.4,0,1.9-0.5c0.5-0.7,0.6-1.5,0.4-2.3C666.2,376.2,666,375.5,665.7,374.7z
	"/>
<path class="st1" d="M642.3,393.9c0.4-0.6,0.6-1.2,0.8-1.9c0.1-0.5,0.3-1,0.4-1.6l-1.5-0.9c-0.7,0.4-1.4,0.9-2,1.4
	c-0.6,0.6-0.9,1.4-0.9,2.2c0,0.8,0.7,1.5,1.5,1.7C641.3,394.8,641.9,394.5,642.3,393.9z"/>
<path class="st1" d="M477.5,253.2c-0.6,0.4-0.4,1.3-0.2,1.9c0.3,0.8,0.6,1.5,0.8,2.3l0.4-1.5c0.3-0.6,0.5-1.2,0.4-1.9
	C478.9,253.4,478.1,252.9,477.5,253.2z"/>
<path class="st2" d="M855.2,390.1h-253c-12.7,0-23-10.3-23-23v-181c0-12.7,10.3-23,23-23h253c12.7,0,23,10.3,23,23v181
	C878.2,379.8,867.9,390.1,855.2,390.1z"/>
<path class="st3" d="M855.2,390.1h-253c-12.7,0-23-10.3-23-23v-181c0-12.7,10.3-23,23-23h253c12.7,0,23,10.3,23,23v181
	C878.2,379.8,867.9,390.1,855.2,390.1z M602.2,165.1c-11.6,0-21,9.4-21,21v181c0,11.6,9.4,21,21,21h253c11.6,0,21-9.4,21-21v-181
	c0-11.6-9.4-21-21-21H602.2z"/>
<path class="st4" d="M671,190.6h-40c-2.2,0-4-1.8-4-4s1.8-4,4-4h40c2.2,0,4,1.8,4,4S673.2,190.6,671,190.6z"/>
<path class="st4" d="M758,280.6H631c-2.2,0-4-1.8-4-4s1.8-4,4-4h127c2.2,0,4,1.8,4,4S760.2,280.6,758,280.6z"/>
<circle class="st5" cx="653.5" cy="228.6" r="26.8"/>
<rect x="627" y="357" class="st3" width="6" height="2"/>
<path class="st3" d="M809.2,359h-12.6v-2h12.6V359z M784,359h-12.6v-2H784V359z M758.9,359h-12.6v-2h12.6V359z M733.7,359h-12.6v-2
	h12.6V359z M708.5,359h-12.6v-2h12.6V359z M683.4,359h-12.6v-2h12.6V359z M658.2,359h-12.6v-2h12.6V359z"/>
<rect x="821.8" y="357" class="st3" width="6" height="2"/>
<rect x="723.9" y="321.6" class="st5" width="5" height="34"/>
<rect x="774.9" y="321.6" class="st5" width="5" height="34"/>
<rect x="799.9" y="340.6" class="st5" width="5" height="15"/>
<rect x="748.9" y="306.6" class="st5" width="5" height="49"/>
<circle class="st5" cx="269.9" cy="383.6" r="6"/>
<circle class="st5" cx="285.9" cy="354.6" r="6"/>
<circle class="st5" cx="461.9" cy="331.6" r="6"/>
<polygon class="st6" points="324.1,760.6 333.2,760.6 337.5,725.6 324.1,725.6 "/>
<path class="st7" d="M323.8,770l27.8,0v-0.4c0-6-4.8-10.8-10.8-10.8h0l-5.1-3.9l-9.5,3.9l-2.4,0L323.8,770z"/>
<polygon class="st6" points="392.1,760.6 401.2,760.6 405.5,725.6 392.1,725.6 "/>
<path class="st7" d="M391.8,770l27.8,0v-0.4c0-6-4.8-10.8-10.8-10.8h0l-5.1-3.9l-9.5,3.9l-2.4,0L391.8,770z"/>
<path class="st6" d="M323.8,476.6l16.1-2.3c5.4,9.1,7.4,33.3,7.4,33.3l15.7,37.4c3.3,2.2,4.1,6.7,1.9,10c-2.2,3.3-6.7,4.1-10,1.9
	c-2.1-1.4-3.3-3.9-3.1-6.5L326,506.8L323.8,476.6z"/>
<path class="st3" d="M332.5,432L332.5,432c-9.3,1.4-15.7,10.2-14.3,19.5c0.2,1,0.4,2.1,0.8,3.1l3.4,9.7c0,0-4.3,29.1,2.8,37.3
	l21.7-2c0,0-4-14.7-0.9-21.8c1.9-4.3,1.8-19.4-0.1-31.6C344.5,436.9,341.8,430.6,332.5,432z"/>
<path class="st7" d="M407.4,519.6c0,0,16.7,16.3,13.2,20.1s-11.7,9-4.2,9.9s10.7,2.7,4.2,4.3s-5.6,5.6-5.6,5.6s9.9,47.1,2.4,78.1
	c0,0-4.2,84.7-6.8,91.3s-3.6,2.6-2.6,6.6s3-3,1,4c-1.1,3.7-2,7.4-2.6,11.1l-19.6-3c0,0-3.1-9.9,0-12.5s6-1,2.6-6.8s-4.4,2.2-3.4-5.8
	s-3.2-51.3,3.4-74.1l-12.2-64.2l-19.3,66.4c0,0-10.3,81.1-13.6,84s-8.3-2.1-3.3,2.9s4.9,4.1,5,5c0.9,9.2-27.7-0.9-27.7-0.9
	c0.2-2.3,0.2-4.7,0-7c-0.3-2.1,3.3-2.8,0-5s1.6,0,1.6,0s7.4-59.9,13-78l6.5-88.3c0,0,0.4,1.8,0-2.5s-3.4-1.3-0.4-4.3s5-4.5,3-6.8
	s-7.5-6.8-4.3-9.5s9.7-20.6,9.7-20.6l62.5,0.5"/>
<path class="st3" d="M383.9,420.5l-11.3-12.7l-17.8,2l-11.4,16l0,0c-12.6,2.9-20.7,15.1-18.5,27.9c4.4,25.5,19.5,50.2,14.5,62.8
	c-7.5,19.1-8,26.9,10,24.2s78.5-8.8,66.8-20.6s-14.3-31.3-14.3-31.3l-0.5-44.8c2-10.8-5.2-21.2-16-23.2
	C384.9,420.6,384.4,420.5,383.9,420.5z"/>
<path class="st6" d="M380.8,469.6l16.1-2.3c5.4,9.1,7.4,33.3,7.4,33.3l15.7,37.4c3.3,2.2,4.1,6.7,1.9,10c-2.2,3.3-6.7,4.1-10,1.9
	c-2.1-1.4-3.3-3.9-3.1-6.5L383,499.8L380.8,469.6z"/>
<path class="st3" d="M389.5,425L389.5,425c-9.3,1.4-15.7,10.2-14.3,19.5c0.2,1,0.4,2.1,0.8,3.1l3.4,9.7c0,0-4.3,29.1,2.8,37.3
	l21.7-2c0,0-4-14.7-0.9-21.8c1.9-4.3,1.8-19.4-0.1-31.6C401.5,429.9,398.8,423.6,389.5,425z"/>
<circle class="st6" cx="358.8" cy="385.2" r="21.5"/>
<path class="st7" d="M354.8,406.2c6-1.5,6.2-3.2,12.2-4.7c1.9-0.5,4.1-1.2,4.7-3.1c0.3-1.4-0.1-2.8-1.1-3.9c-0.9-1-1.8-2.1-2.6-3.3
	c-1.8-3.1-0.8-7.1,2.3-9c0.7-0.4,1.5-0.7,2.2-0.8c1.9-0.3,3.8,0.2,5.6-0.1c2.6-0.3,6.3-9.8,4.7-11.8c-1.6-1.9-4.2-3.1-5.1-5.4
	c-0.6-1.5-0.3-3.3-0.5-4.9c-0.4-2.4-5.2,4.3-4.6,1.9c1.6-5.8-25.3-6.7-28.1,0.7c-1,2.8-3.9,3.2-6.1,5.2c-1.4,1.3-4.8,5.5-5.3,7.7
	c-0.4,2.3-0.3,4.6,0.2,6.9c2.2,10.5,5.9,19.9,15.8,24.2"/>
<path class="st8" d="M185.1,771.4l389.7,0.3c0.7,0,1.2-0.5,1.2-1.2s-0.5-1.2-1.2-1.2c0,0,0,0,0,0L185.1,769c-0.7,0-1.2,0.5-1.2,1.2
	S184.4,771.4,185.1,771.4C185.1,771.4,185.1,771.4,185.1,771.4z"/>
<path class="st9" d="M309.4,282.4H171.9c-4.2,0-7.7-3.4-7.7-7.7v-80.3c0-4.2,3.4-7.7,7.7-7.7h137.5c4.2,0,7.7,3.4,7.7,7.7v80.3
	C317.1,279,313.7,282.4,309.4,282.4z"/>
<path class="st3" d="M295.9,262.4H185.5c-0.2,0-0.3-0.2-0.3-0.3v-52.9c0-0.2,0.2-0.3,0.3-0.3c0.2,0,0.3,0.2,0.3,0.3v52.6h110.1
	c0.2,0,0.3,0.2,0.3,0.3C296.2,262.3,296.1,262.4,295.9,262.4C295.9,262.4,295.9,262.4,295.9,262.4L295.9,262.4z"/>
<path class="st5" d="M209.1,258.6h-10c-0.6,0-1-0.5-1-1v-13.8c0-0.6,0.5-1,1-1h10c0.6,0,1,0.5,1,1v13.8
	C210.1,258.2,209.6,258.6,209.1,258.6z"/>
<path class="st5" d="M227.4,258.6h-10c-0.6,0-1-0.5-1-1v-27c0-0.6,0.5-1,1-1h10c0.6,0,1,0.5,1,1v27
	C228.4,258.2,227.9,258.6,227.4,258.6z"/>
<path class="st5" d="M245.7,258.6h-10c-0.6,0-1-0.5-1-1v-13.8c0-0.6,0.5-1,1-1h10c0.6,0,1,0.5,1,1v13.8
	C246.7,258.2,246.2,258.6,245.7,258.6z"/>
<path class="st5" d="M264,258.6h-10c-0.6,0-1-0.4-1-1v-32.3c0-0.6,0.5-1,1-1h10c0.6,0,1,0.4,1,1v32.3
	C265,258.2,264.5,258.7,264,258.6z"/>
<path class="st5" d="M282.3,258.6h-10c-0.6,0-1-0.5-1-1v-41.5c0-0.6,0.5-1,1-1h10c0.6,0,1,0.5,1,1v41.5
	C283.3,258.2,282.9,258.6,282.3,258.6z"/>
<circle class="st3" cx="204" cy="236.5" r="2.1"/>
<circle class="st3" cx="222.3" cy="223" r="2.1"/>
<circle class="st3" cx="240.7" cy="236.5" r="2.1"/>
<circle class="st3" cx="259" cy="216.5" r="2.1"/>
<circle class="st3" cx="277.3" cy="208.9" r="2.1"/>
<polygon class="st3" points="240.7,237 222.3,223.2 204.2,236.8 203.8,236.3 222.3,222.4 240.6,236.1 258.8,216.2 258.8,216.2 
	277.2,208.8 277.4,209.4 259.2,216.8 "/>
<path class="st10" d="M985.3,681.1H817.7c-13.9,0-25.1-11.2-25.1-25.1V467.5c0-13.9,11.2-25.1,25.1-25.1h167.6
	c13.9,0,25.1,11.2,25.1,25.1v188.6C1010.4,669.9,999.2,681.1,985.3,681.1z"/>
<rect x="935.5" y="675.1" class="st3" width="45.3" height="1.8"/>
<rect x="935.5" y="680.6" class="st3" width="45.3" height="1.8"/>
<rect x="935.5" y="686.1" class="st3" width="45.3" height="1.8"/>
<path class="st1" d="M901.5,501.6v19.2c31.8,0,57.5,25.7,57.5,57.5c0,15.3-6.1,29.9-16.8,40.7l13.6,13.6
	c29.9-29.9,29.9-78.5,0-108.4C941.3,509.7,921.8,501.6,901.5,501.6z"/>
<path class="st11" d="M955.7,632.5l-13.6-13.6c-20.3,20.3-52.6,22.5-75.5,5.1l-11.6,15.3C885.6,662.5,928.6,659.6,955.7,632.5z"/>
<path class="st5" d="M844.8,578.6c0-31.9,25.7-57.8,57.5-57.8l0,0v-19.3c-42.3,0-76.7,34.5-76.7,77c0,24.1,11.2,46.8,30.3,61.3
	l11.6-15.3C853.2,613.7,844.8,596.7,844.8,578.6z"/>
<g>
	<path class="st5" d="M60.2,737.6c-0.7,0-1.3-0.1-2-0.1c-21,0-38,17-38,38l0,0h40V737.6z"/>
	<path class="st3" d="M68.2,826.6c-21.5,0-39-17.5-39-39c0-0.6,0.4-1,1-1h39v-36.9c0-0.3,0.1-0.5,0.3-0.7c0.2-0.2,0.5-0.3,0.7-0.3
		c21.5,1.1,38,19.5,36.9,41C106,810.4,88.9,826.6,68.2,826.6z M31.2,788.6c0.6,20.4,17.6,36.5,38,36s36.5-17.6,36-38
		c-0.5-18.9-15.2-34.3-34-35.9v36.9c0,0.6-0.4,1-1,1H31.2z"/>
</g>
<path class="st1" d="M702,669.5H544.5c-0.4,0-0.7-0.3-0.7-0.7s0.3-0.7,0.7-0.7H702c0.4,0,0.7,0.3,0.7,0.7S702.4,669.5,702,669.5z"/>
<path class="st3" d="M667.5,669.5H578c-0.4,0-0.7-0.3-0.7-0.7s0.3-0.7,0.7-0.7h89.5c0.4,0,0.7,0.3,0.7,0.7S667.9,669.5,667.5,669.5z
	"/>
<path class="st3" d="M623.6,669.5c-0.4,0-0.7-0.3-0.7-0.7v-44.9c0-0.4,0.3-0.7,0.7-0.7s0.7,0.3,0.7,0.7v44.9
	C624.3,669.1,624,669.5,623.6,669.5z"/>
<path class="st3" d="M668.5,669.5c-0.4,0-0.7-0.3-0.7-0.7v-89.8c0-0.4,0.3-0.7,0.7-0.7s0.7,0.3,0.7,0.7v89.8
	C669.3,669.1,668.9,669.5,668.5,669.5z"/>
<circle class="st1" cx="520.3" cy="578.9" r="7.8"/>
<circle class="st1" cx="520.3" cy="623.8" r="7.8"/>
<circle class="st1" cx="520.3" cy="668.7" r="7.8"/>
<path class="st1" d="M702,579.6H544.5c-0.4,0-0.7-0.3-0.7-0.7s0.3-0.7,0.7-0.7H702c0.4,0,0.7,0.3,0.7,0.7S702.4,579.6,702,579.6z"/>
<path class="st1" d="M702,624.5H544.5c-0.4,0-0.7-0.3-0.7-0.7s0.3-0.7,0.7-0.7H702c0.4,0,0.7,0.3,0.7,0.7S702.4,624.5,702,624.5z"/>
<circle class="st5" cx="578.4" cy="668.7" r="7.8"/>
<circle class="st5" cx="623.6" cy="623.8" r="7.8"/>
<circle class="st5" cx="623.6" cy="668.7" r="7.8"/>
<circle class="st5" cx="668.5" cy="578.9" r="7.8"/>
<circle class="st5" cx="668.5" cy="623.8" r="7.8"/>
<circle class="st5" cx="668.5" cy="668.7" r="7.8"/>
<g>
	<rect x="971" y="178.7" class="st2" width="53.8" height="27.1"/>
	<rect x="977.4" y="185.7" class="st5" width="41.1" height="1.4"/>
	<rect x="977.4" y="191.6" class="st5" width="41.1" height="1.4"/>
	<rect x="977.4" y="197.5" class="st5" width="41.1" height="1.4"/>
	<path class="st3" d="M1025.3,206.3h-54.7v-28h54.7V206.3z M971.5,205.4h53v-26.3h-53V205.4z"/>
	<path class="st5" d="M986.2,145.1c-11.4,0-22.6-3.2-32.3-9.2l-0.2-0.2l0.2-0.2L986,83.4h61.5v0.3
		C1047.6,117.5,1020,145.1,986.2,145.1z"/>
	<path class="st12" d="M946.7,122.9l-0.2-0.1c-22.6-14-30-43.3-16.9-66.3l0.1-0.2l43,24.6L946.7,122.9z"/>
	<path class="st5" d="M1047.6,75.2h-61.7l13.3-60.3l0.3,0.1c28.1,6.2,48.1,31.1,48.1,59.9V75.2z"/>
	<path class="st12" d="M976,65.7l-41.8-23.9l0.1-0.2c10.4-18.2,31.4-27.5,51.9-23l0.2,0L976,65.7z"/>
	<rect x="1078.7" y="10.6" class="st2" width="53.8" height="27.1"/>
	<rect x="1085.1" y="17.6" class="st5" width="41.1" height="1.4"/>
	<rect x="1085.1" y="23.5" class="st5" width="41.1" height="1.4"/>
	<rect x="1085.1" y="29.4" class="st5" width="41.1" height="1.4"/>
	<path class="st3" d="M1133,38.2h-54.7v-28h54.7V38.2z M1079.1,37.3h53V11.1h-53V37.3z"/>
	<rect x="997.7" y="108.5" class="st3" width="0.8" height="69.8"/>
	
		<rect x="1011.9" y="38.6" transform="matrix(0.9111 -0.4121 0.4121 0.9111 76.9493 434.8849)" class="st3" width="69.8" height="0.8"/>
</g>
<g>
	<path class="st13" d="M236.8,567.1H109.3c-8.7,0-15.8-7.1-15.8-15.8V408.5c0-8.7,7.1-15.8,15.8-15.8h127.5
		c8.7,0,15.8,7.1,15.8,15.8v142.8C252.6,560,245.5,567.1,236.8,567.1z"/>
	<rect x="116.4" y="499.3" class="st11" width="28.6" height="45.8"/>
	<rect x="157.8" y="468.1" class="st1" width="28.6" height="77"/>
	<rect x="199.2" y="431.8" class="st5" width="28.6" height="113.3"/>
	<polygon class="st3" points="237.3,546.4 108.8,546.4 108.8,413.4 110,413.4 110,545.1 237.3,545.1 	"/>
</g>
<g>
	<path class="st5" d="M441.6,132.2c0.5,0,1,0,1.6,0c16.3,0,29.5-13.2,29.5-29.5l0,0l-31.1,0V132.2z"/>
	<path class="st3" d="M435.4,63.1c16.7,0,30.3,13.6,30.3,30.3c0,0.4-0.3,0.8-0.8,0.8l-30.3,0l0,28.7c0,0.2-0.1,0.4-0.2,0.6
		c-0.2,0.1-0.4,0.2-0.6,0.2c-16.7-0.9-29.5-15.1-28.7-31.8C406,75.8,419.3,63.1,435.4,63.1z M464.1,92.7
		c-0.4-15.9-13.6-28.4-29.5-28c-15.9,0.4-28.4,13.6-28,29.5c0.4,14.7,11.8,26.7,26.4,27.9l0-28.6c0-0.4,0.3-0.8,0.8-0.8L464.1,92.7z
		"/>
</g>
<g>
	
		<rect x="1057.1" y="677.9" transform="matrix(6.857819e-03 -1 1 6.857819e-03 371.3088 1731.2747)" class="st1" width="0.3" height="1.6"/>
	<path class="st1" d="M1109.1,704.1l-3.2,0l0-0.3l3.2,0L1109.1,704.1z M1102.7,704.1l-3.2,0l0-0.3l3.2,0L1102.7,704.1z M1096.3,704
		l-3.2,0l0-0.3l3.2,0L1096.3,704z M1089.9,704l-3.2,0l0-0.3l3.2,0L1089.9,704z M1083.5,703.9l-3.2,0l0-0.3l3.2,0L1083.5,703.9z
		 M1077.1,703.9l-3.2,0l0-0.3l3.2,0L1077.1,703.9z M1070.7,703.9l-3.2,0l0-0.3l3.2,0L1070.7,703.9z M1064.3,703.8l-3.2,0l0-0.3
		l3.2,0L1064.3,703.8z"/>
	
		<rect x="1056.9" y="702.8" transform="matrix(6.857819e-03 -1 1 6.857819e-03 346.2159 1755.8566)" class="st1" width="0.3" height="1.6"/>
	
		<rect x="1081.5" y="714.8" transform="matrix(6.857819e-03 -1 1 6.857819e-03 358.6615 1792.3098)" class="st1" width="0.3" height="1.6"/>
	<path class="st1" d="M1077.6,715.7l-3.3,0l0-0.3l3.3,0L1077.6,715.7z M1071,715.7l-3.3,0l0-0.3l3.3,0L1071,715.7z M1064.4,715.6
		l-3.3,0l0-0.3l3.3,0L1064.4,715.6z"/>
	
		<rect x="1056.9" y="714.6" transform="matrix(6.857819e-03 -1 1 6.857819e-03 334.344 1767.4867)" class="st1" width="0.3" height="1.6"/>
	
		<rect x="1081.4" y="734.9" transform="matrix(6.857819e-03 -1 1 6.857819e-03 338.4018 1812.157)" class="st1" width="0.3" height="1.6"/>
	<path class="st1" d="M1077.4,735.8l-3.3,0l0-0.3l3.3,0L1077.4,735.8z M1070.8,735.8l-3.3,0l0-0.3l3.3,0L1070.8,735.8z
		 M1064.2,735.7l-3.3,0l0-0.3l3.3,0L1064.2,735.7z"/>
	
		<rect x="1056.7" y="734.7" transform="matrix(6.857819e-03 -1 1 6.857819e-03 314.0842 1787.3339)" class="st1" width="0.3" height="1.6"/>
	<circle class="st3" cx="1082.5" cy="715.6" r="1.9"/>
	<path class="st14" d="M983.5,741.9l109.4,0.8c4.3,0,7.9-3.5,7.9-7.8l0,0l0.5-75.4c0-4.3-3.5-7.9-7.8-7.9l0,0l-109.4-0.8
		c-4.3,0-7.9,3.5-7.9,7.8v0l-0.5,75.4C975.7,738.3,979.2,741.8,983.5,741.9z"/>
	<path class="st1" d="M1088.6,677l-3.2,0l0-0.3l3.2,0L1088.6,677z M1082.1,677l-3.2,0l0-0.3l3.2,0L1082.1,677z M1075.6,676.9l-3.2,0
		l0-0.3l3.2,0L1075.6,676.9z M1069.1,676.9l-3.2,0l0-0.3l3.2,0L1069.1,676.9z M1062.6,676.8l-3.2,0l0-0.3l3.2,0L1062.6,676.8z
		 M1056.1,676.8l-3.2,0l0-0.3l3.2,0L1056.1,676.8z M1049.6,676.8l-3.2,0l0-0.3l3.2,0L1049.6,676.8z M1043.1,676.7l-3.2,0l0-0.3
		l3.2,0L1043.1,676.7z M1036.6,676.7l-3.2,0l0-0.3l3.2,0L1036.6,676.7z M1030.1,676.6l-3.2,0l0-0.3l3.2,0L1030.1,676.6z
		 M1023.6,676.6l-3.2,0l0-0.3l3.2,0L1023.6,676.6z M1017.1,676.5l-3.2,0l0-0.3l3.2,0L1017.1,676.5z M1010.6,676.5l-3.2,0l0-0.3
		l3.2,0L1010.6,676.5z M1004.1,676.4l-3.2,0l0-0.3l3.2,0L1004.1,676.4z M997.6,676.4l-3.2,0l0-0.3l3.2,0L997.6,676.4z M991.1,676.4
		l-3.2,0l0-0.3l3.2,0L991.1,676.4z"/>
	
		<rect x="1039.5" y="700.7" transform="matrix(6.857819e-03 -1 1 6.857819e-03 331.0732 1736.3025)" class="st1" width="0.3" height="1.6"/>
	<path class="st5" d="M991.7,733.4l92.7,0.6c4.7,0,8.5-3.7,8.5-8.4l0.3-45.6l-0.2,0l-38.8,38.3l-11.9-12c-0.4-0.5-1.1-0.7-1.7-0.6
		c-0.5,0.1-0.9,0.3-1.2,0.6l-20.3,20.1l-8.7-8.8c-0.8-0.8-2.1-0.8-2.9,0c0,0,0,0,0,0C1007.3,717.7,994.2,730.9,991.7,733.4z"/>
	<path class="st3" d="M991.3,733.7l-0.2-0.2l16.3-16.1c0.9-0.9,2.3-0.9,3.2,0l8.5,8.6l20.2-20c0.9-0.9,2.3-0.9,3.2,0l11.7,11.9
		l39-38.5l0.2,0.2l-39.2,38.7l-11.9-12.1c-0.8-0.8-2.1-0.8-2.8,0c0,0,0,0,0,0l-20.4,20.1l-8.7-8.8c-0.8-0.8-2.1-0.8-2.8,0
		L991.3,733.7z"/>
	<circle class="st3" cx="1040.5" cy="701.5" r="1.9"/>
</g>
<path class="st1" d="M203.3,164.5h-97.1c-0.2,0-0.4-0.2-0.4-0.4s0.2-0.4,0.4-0.4h97.1c0.2,0,0.4,0.2,0.4,0.4
	S203.5,164.5,203.3,164.5z"/>
<path class="st3" d="M182,164.5h-55.2c-0.2,0-0.4-0.2-0.4-0.4s0.2-0.4,0.4-0.4H182c0.2,0,0.4,0.2,0.4,0.4S182.3,164.5,182,164.5z"/>
<path class="st3" d="M135.2,164.5c0.2,0,0.4-0.2,0.4-0.4v-27.7c0-0.2-0.2-0.4-0.4-0.4c-0.2,0-0.4,0.2-0.4,0.4v27.7
	C134.7,164.3,134.9,164.5,135.2,164.5z"/>
<path class="st3" d="M107.5,164.5c0.2,0,0.4-0.2,0.4-0.4v-55.4c0-0.2-0.2-0.4-0.4-0.4s-0.4,0.2-0.4,0.4v55.4
	C107,164.3,107.2,164.5,107.5,164.5z"/>
<circle class="st1" cx="198.9" cy="136.4" r="4.8"/>
<circle class="st1" cx="198.9" cy="164.1" r="4.8"/>
<path class="st1" d="M86.8,136.8h97.1c0.2,0,0.4-0.2,0.4-0.4s-0.2-0.4-0.4-0.4H86.8c-0.2,0-0.4,0.2-0.4,0.4S86.6,136.8,86.8,136.8z"
	/>
<circle class="st5" cx="163.1" cy="164.1" r="4.8"/>
<circle class="st5" cx="135.2" cy="136.4" r="4.8"/>
<circle class="st5" cx="135.2" cy="164.1" r="4.8"/>
<circle class="st5" cx="107.5" cy="136.4" r="4.8"/>
<circle class="st5" cx="107.5" cy="164.1" r="4.8"/>
</svg>
